<svg width="720" height="720" viewBox="0 0 720 720" fill="none" xmlns="http://www.w3.org/2000/svg">
<rect width="720" height="720" fill="#013988"/>
<path d="M212.785 449.262H192.099V414H197.86V444.331H212.785V449.262ZM240.784 449.262H235.023V414H240.784V449.262ZM280.665 435.087V430.13H293.634V447.841C291.561 448.52 289.552 449.003 287.605 449.288C285.658 449.592 283.523 449.744 281.201 449.744C275.86 449.744 271.742 448.163 268.848 445.001C265.955 441.839 264.508 437.4 264.508 431.684C264.508 425.968 266.133 421.511 269.384 418.314C272.653 415.098 277.155 413.491 282.889 413.491C286.533 413.491 290.016 414.205 293.339 415.634L291.329 420.43C288.435 419.109 285.568 418.448 282.728 418.448C278.977 418.448 276.003 419.627 273.805 421.984C271.626 424.36 270.536 427.647 270.536 431.845C270.536 436.025 271.519 439.24 273.484 441.491C275.449 443.742 278.28 444.867 281.978 444.867C283.818 444.867 285.818 444.635 287.98 444.171V435.087H280.665ZM346.069 414V449.262H340.281V433.372H324.043V449.262H318.282V414H324.043V428.415H340.281V414H346.069ZM383.671 418.957V449.262H377.91V418.957H367.54V414H394.04V418.957H383.671ZM421.381 449.262H415.62V414H421.381V449.262ZM476.214 414V449.262H469.14L451.804 421.181H451.616L451.723 422.735C451.956 425.593 452.072 428.326 452.072 430.934V449.262H446.847V414H453.84L471.123 441.947H471.257C471.042 437.356 470.935 434.203 470.935 432.488V414H476.214ZM516.142 435.087V430.13H529.111V447.841C527.039 448.52 525.029 449.003 523.082 449.288C521.135 449.592 519 449.744 516.678 449.744C511.337 449.744 507.22 448.163 504.326 445.001C501.432 441.839 499.985 437.4 499.985 431.684C499.985 425.968 501.611 421.511 504.862 418.314C508.131 415.098 512.632 413.491 518.366 413.491C522.01 413.491 525.494 414.205 528.816 415.634L526.807 420.43C523.913 419.109 521.046 418.448 518.205 418.448C514.454 418.448 511.48 419.627 509.283 421.984C507.103 424.36 506.014 427.647 506.014 431.845C506.014 436.025 506.996 439.24 508.961 441.491C510.926 443.742 513.757 444.867 517.455 444.867C519.295 444.867 521.296 444.635 523.457 444.171V435.087H516.142Z" fill="white"/>
<path d="M224.639 369.68C224.639 373.136 222.479 374.864 218.159 374.864C213.911 374.864 211.787 373.136 211.787 369.68V299.156H192.887C190.295 299.156 188.927 297.32 188.783 293.648C188.783 290.048 190.151 288.248 192.887 288.248H243.539C246.275 288.248 247.571 290.048 247.427 293.648C247.427 297.32 246.131 299.156 243.539 299.156H224.639V369.68ZM297.904 288.248C299.776 288.248 301.72 288.644 303.736 289.436C305.752 290.228 307.696 291.236 309.568 292.46H309.46C311.332 293.828 312.772 295.628 313.78 297.86C314.788 300.02 315.292 302.54 315.292 305.42V356.72C315.292 362.552 313.348 366.908 309.46 369.788C307.588 371.156 305.644 372.236 303.628 373.028C301.684 373.748 299.776 374.108 297.904 374.108H274.36C272.488 374.108 270.544 373.748 268.528 373.028C266.584 372.236 264.676 371.156 262.804 369.788C260.932 368.348 259.492 366.584 258.484 364.496C257.476 362.336 256.972 359.744 256.972 356.72V305.42C256.972 302.54 257.476 300.02 258.484 297.86C259.492 295.628 260.932 293.828 262.804 292.46H262.696C264.568 291.236 266.512 290.228 268.528 289.436C270.544 288.644 272.488 288.248 274.36 288.248H297.904ZM295.204 363.2C297.868 363.2 299.74 362.444 300.82 360.932C301.9 359.42 302.44 357.728 302.44 355.856V306.392C302.44 304.592 301.9 302.936 300.82 301.424C299.74 299.912 297.868 299.156 295.204 299.156H277.06C274.396 299.156 272.524 299.912 271.444 301.424C270.364 302.936 269.824 304.592 269.824 306.392V355.856C269.824 357.728 270.364 359.42 271.444 360.932C272.524 362.444 274.396 363.2 277.06 363.2H295.204ZM377.331 292.892C377.331 289.436 379.455 287.708 383.703 287.708C388.023 287.708 390.183 289.436 390.183 292.892V369.464C390.183 372.92 388.023 374.648 383.703 374.648C379.455 374.648 377.331 372.92 377.331 369.464V292.892ZM344.499 369.464C344.499 372.92 342.339 374.648 338.019 374.648C333.771 374.648 331.647 372.92 331.647 369.464V292.892C331.647 289.436 333.771 287.708 338.019 287.708C342.339 287.708 344.499 289.436 344.499 292.892V369.464ZM369.771 329.396C369.771 331.916 368.907 334.04 367.179 335.768C365.451 337.496 363.327 338.36 360.807 338.36C358.359 338.36 356.271 337.496 354.543 335.768C352.815 334.04 351.951 331.916 351.951 329.396C351.951 326.876 352.815 324.752 354.543 323.024C356.271 321.296 358.359 320.432 360.807 320.432C363.327 320.432 365.451 321.296 367.179 323.024C368.907 324.752 369.771 326.876 369.771 329.396ZM434.838 369.68C434.838 373.136 432.678 374.864 428.358 374.864C424.11 374.864 421.986 373.136 421.986 369.68V299.156H403.086C400.494 299.156 399.126 297.32 398.982 293.648C398.982 290.048 400.35 288.248 403.086 288.248H453.738C456.474 288.248 457.77 290.048 457.626 293.648C457.626 297.32 456.33 299.156 453.738 299.156H434.838V369.68ZM508.104 288.248C509.976 288.248 511.92 288.644 513.936 289.436C515.952 290.228 517.896 291.236 519.768 292.46H519.66C521.532 293.828 522.972 295.628 523.98 297.86C524.988 300.02 525.492 302.54 525.492 305.42V356.72C525.492 362.552 523.548 366.908 519.66 369.788C517.788 371.156 515.844 372.236 513.828 373.028C511.884 373.748 509.976 374.108 508.104 374.108H484.56C482.688 374.108 480.744 373.748 478.728 373.028C476.784 372.236 474.876 371.156 473.004 369.788C471.132 368.348 469.692 366.584 468.684 364.496C467.676 362.336 467.172 359.744 467.172 356.72V305.42C467.172 302.54 467.676 300.02 468.684 297.86C469.692 295.628 471.132 293.828 473.004 292.46H472.896C474.768 291.236 476.712 290.228 478.728 289.436C480.744 288.644 482.688 288.248 484.56 288.248H508.104ZM505.404 363.2C508.068 363.2 509.94 362.444 511.02 360.932C512.1 359.42 512.64 357.728 512.64 355.856V306.392C512.64 304.592 512.1 302.936 511.02 301.424C509.94 299.912 508.068 299.156 505.404 299.156H487.26C484.596 299.156 482.724 299.912 481.644 301.424C480.564 302.936 480.024 304.592 480.024 306.392V355.856C480.024 357.728 480.564 359.42 481.644 360.932C482.724 362.444 484.596 363.2 487.26 363.2H505.404Z" fill="#F7E401"/>
<rect x="115" y="115" width="490" height="490" rx="245" stroke="#F7E401" stroke-width="10" stroke-linecap="round" stroke-linejoin="round"/>
</svg>
